<svg width="26" height="24" viewBox="0 0 26 24" fill="none" xmlns="http://www.w3.org/2000/svg">
<path d="M14.0834 11.9H7.58337C7.13921 11.9 6.77087 11.56 6.77087 11.15C6.77087 10.74 7.13921 10.4 7.58337 10.4H14.0834C14.5275 10.4 14.8959 10.74 14.8959 11.15C14.8959 11.56 14.5275 11.9 14.0834 11.9Z" fill="#767387"/>
<path d="M2.16663 11.9001C1.72246 11.9001 1.35413 11.5601 1.35413 11.1501V6.53009C1.35413 4.08009 3.50996 2.09009 6.16413 2.09009H12.2525C15.0366 2.09009 17.0625 3.80009 17.0625 6.15009C17.0625 6.56009 16.6941 6.90009 16.25 6.90009C15.8058 6.90009 15.4375 6.56009 15.4375 6.15009C15.4375 4.39009 13.78 3.59009 12.2525 3.59009H6.16413C4.40913 3.59009 2.97913 4.91009 2.97913 6.53009V11.1501C2.97913 11.5701 2.61079 11.9001 2.16663 11.9001Z" fill="#767387"/>
<path d="M17.3333 21.9H6.49996C3.66163 21.9 1.35413 19.77 1.35413 17.15V10.15C1.35413 7.53002 3.66163 5.40002 6.49996 5.40002H17.3333C20.1716 5.40002 22.4791 7.53002 22.4791 10.15V11.6C22.4791 12.01 22.1108 12.35 21.6666 12.35H20.4966C20.1174 12.35 19.7708 12.48 19.5216 12.72L19.5108 12.73C19.1533 13.06 19.0124 13.52 19.1424 13.97C19.3049 14.53 19.9441 14.94 20.6591 14.94H21.6666C22.1108 14.94 22.4791 15.28 22.4791 15.69V17.14C22.4791 19.77 20.1716 21.9 17.3333 21.9ZM6.49996 6.90002C4.56079 6.90002 2.97913 8.36002 2.97913 10.15V17.15C2.97913 18.94 4.56079 20.4 6.49996 20.4H17.3333C19.2725 20.4 20.8541 18.94 20.8541 17.15V16.45H20.6591C19.1966 16.45 17.9291 15.6 17.5716 14.37C17.2899 13.4 17.5933 12.37 18.3625 11.67C18.9258 11.14 19.6841 10.85 20.4966 10.85H20.8541V10.15C20.8541 8.36002 19.2725 6.90002 17.3333 6.90002H6.49996Z" fill="#767387"/>
<path d="M22.7174 16.45H20.6266C18.9908 16.45 17.6041 15.33 17.4741 13.89C17.3874 13.06 17.7125 12.25 18.3625 11.66C18.9041 11.14 19.6732 10.85 20.4857 10.85H22.7066C23.7683 10.85 24.6349 11.64 24.6349 12.62V14.68C24.6458 15.66 23.7791 16.45 22.7174 16.45ZM20.4966 12.35C20.1174 12.35 19.7708 12.48 19.5216 12.72C19.2075 13 19.0558 13.38 19.0991 13.76C19.1533 14.42 19.8466 14.95 20.6266 14.95H22.7174C22.8799 14.95 23.0208 14.83 23.0208 14.68V12.62C23.0208 12.47 22.8799 12.35 22.7174 12.35H20.4966Z" fill="#767387"/>
</svg>
